<svg width="30" height="29" viewBox="0 0 30 29" fill="none" xmlns="http://www.w3.org/2000/svg">
<path fill-rule="evenodd" clip-rule="evenodd" d="M23.0002 10.629C23.0002 12.1466 23.4013 13.041 24.284 14.0718C24.9529 14.8312 25.1667 15.806 25.1667 16.8636C25.1667 17.92 24.8196 18.9228 24.1243 19.7369C23.214 20.7129 21.9302 21.336 20.62 21.4443C18.7214 21.6062 16.8215 21.7425 14.8964 21.7425C12.9702 21.7425 11.0715 21.661 9.17287 21.4443C7.86147 21.336 6.57769 20.7129 5.6686 19.7369C4.97327 18.9228 4.625 17.92 4.625 16.8636C4.625 15.806 4.83996 14.8312 5.50767 14.0718C6.41797 13.041 6.79265 12.1466 6.79265 10.629V10.1142C6.79265 8.08183 7.29944 6.75287 8.34304 5.45192C9.89462 3.55463 12.3817 2.41675 14.8424 2.41675H14.9505C17.464 2.41675 20.0316 3.6094 21.5567 5.58822C22.5463 6.8624 23.0002 8.13537 23.0002 10.1142V10.629ZM11.3594 24.2402C11.3594 23.6317 11.9178 23.353 12.4342 23.2338C13.0383 23.106 16.7191 23.106 17.3231 23.2338C17.8395 23.353 18.3979 23.6317 18.3979 24.2402C18.3679 24.8195 18.0281 25.3331 17.5585 25.6592C16.9496 26.1339 16.2351 26.4345 15.4881 26.5428C15.075 26.5963 14.6691 26.5975 14.2704 26.5428C13.5222 26.4345 12.8077 26.1339 12.2 25.658C11.7293 25.3331 11.3894 24.8195 11.3594 24.2402Z" fill="#E9E9E9"/>
<circle cx="22.5" cy="15.5" r="5.5" fill="#FA9E11"/>
</svg>
