<svg width="13" height="13" viewBox="0 0 13 13" fill="none" xmlns="http://www.w3.org/2000/svg">
<path d="M11.9167 3.61111C11.9167 4.21493 12.1322 4.8618 12.4948 5.34463C12.812 5.76707 13 6.29214 13 6.86111C13 7.58122 12.6989 8.23099 12.2157 8.6914C12.0261 8.87208 11.9167 9.12697 11.9167 9.38889C11.9167 10.7849 10.7849 11.9167 9.38889 11.9167C8.94535 11.9167 8.49585 12.0854 8.16174 12.3771C7.71743 12.765 7.13616 13 6.5 13C5.86384 13 5.28258 12.765 4.83827 12.3771C4.50416 12.0854 4.05465 11.9167 3.61111 11.9167C2.21506 11.9167 1.08333 10.7849 1.08333 9.38889C1.08333 9.12697 0.973912 8.87208 0.784294 8.6914C0.301111 8.23099 0 7.58122 0 6.86111C0 6.29214 0.187985 5.76707 0.505235 5.34462C0.867834 4.8618 1.08333 4.21493 1.08333 3.61111C1.08333 2.21506 2.21506 1.08333 3.61111 1.08333C4.05465 1.08333 4.50416 0.914629 4.83827 0.622919C5.28258 0.234997 5.86384 0 6.5 0C7.13616 0 7.71743 0.234999 8.16174 0.622922C8.49585 0.914632 8.94535 1.08333 9.38889 1.08333C10.7849 1.08333 11.9167 2.21506 11.9167 3.61111Z" fill="white"/>
<path d="M4.33203 7.22226L5.77648 8.66671L8.66536 4.33337" stroke="url(#paint0_linear_2188_13732)" stroke-width="1.5" stroke-linecap="round" stroke-linejoin="round"/>
<defs>
<linearGradient id="paint0_linear_2188_13732" x1="8.74513" y1="9.59361" x2="-0.392515" y2="4.61456" gradientUnits="userSpaceOnUse">
<stop offset="0.0202" stop-color="#45108A"/>
<stop offset="0.2929" stop-color="#3D065F"/>
<stop offset="1" stop-color="#200554"/>
</linearGradient>
</defs>
</svg>
