<svg width="31" height="30" viewBox="0 0 31 30" fill="none" xmlns="http://www.w3.org/2000/svg">
<path d="M14.2459 25.1811C13.3201 24.4381 4.7232 16.0779 4.62711 15.9865C4.24742 15.6068 4.00836 15.2131 3.94274 14.8521C3.87477 14.4771 3.98961 14.149 4.2943 13.8443C4.57789 13.5607 4.92477 13.4107 5.29742 13.4107C5.75211 13.4107 6.21852 13.6264 6.60758 14.0178L10.5052 17.7631C10.5732 17.8287 10.6623 17.8615 10.749 17.8615C10.818 17.8617 10.8855 17.8414 10.9431 17.8033C11.0006 17.7652 11.0456 17.7109 11.0724 17.6473C11.0992 17.5837 11.1066 17.5136 11.0937 17.4458C11.0808 17.378 11.0481 17.3155 10.9998 17.2662L4.77711 10.8396C4.15367 10.2162 3.8607 9.2623 4.60133 8.52168C4.88492 8.23809 5.2318 8.08809 5.60446 8.08809C6.05914 8.08809 6.52555 8.30371 6.91461 8.69512L13.2802 14.9014C13.3482 14.967 13.4373 15.0021 13.5263 15.0021C13.6154 15.0021 13.7068 14.967 13.7748 14.899C13.9107 14.7631 13.913 14.5428 13.7771 14.4045L6.1318 6.56699C5.77789 6.21309 5.56461 5.78887 5.52711 5.37637C5.49196 4.95684 5.63961 4.56777 5.95602 4.25137C6.23961 3.96777 6.58649 3.81777 6.95914 3.81777C7.41383 3.81777 7.88024 4.0334 8.2693 4.42246L16.067 12.0256C16.1349 12.0912 16.224 12.1264 16.3131 12.1264C16.4021 12.1264 16.4935 12.0912 16.5615 12.0232C16.6974 11.8873 16.6998 11.667 16.5638 11.5287L10.9013 5.70918C10.5451 5.35293 10.3318 4.93105 10.2966 4.51855C10.2615 4.09902 10.4091 3.70996 10.7255 3.39355C11.0091 3.10996 11.356 2.95996 11.7287 2.95996C12.1834 2.95996 12.6498 3.17559 13.0388 3.56699C15.1154 5.60605 20.5365 10.9381 20.7193 11.135C21.4154 11.6154 21.556 10.8889 21.5912 10.4178C21.631 9.86934 21.0029 7.95449 21.3685 6.23184C21.9826 3.94199 23.7521 4.31699 23.792 4.33574C24.7623 4.79043 24.5771 5.47012 24.2326 6.83652L24.1974 7.10605C23.8365 8.89199 26.3162 14.1842 26.499 14.5803C27.4716 16.7084 28.592 21.0232 24.8818 24.7334C20.8154 28.7998 15.781 26.7162 14.2459 25.1811Z" fill="url(#paint0_radial_2085_5720)"/>
<path d="M19.4618 27.4639C16.9681 27.4639 14.847 26.2709 14.0102 25.4436C13.2579 24.8295 8.50947 20.2451 4.64228 16.4928C4.48525 16.3404 4.39384 16.2537 4.38447 16.242C3.94619 15.8037 3.67431 15.3467 3.59697 14.9154C3.50791 14.4256 3.66025 13.9826 4.04462 13.5959C4.39619 13.2443 4.82744 13.0592 5.29619 13.0592C5.84697 13.0592 6.40009 13.3123 6.85478 13.7693L10.7477 17.51L4.52275 11.0834C3.80556 10.3662 3.44462 9.17793 4.35166 8.27324C4.70322 7.92168 5.13447 7.73652 5.60322 7.73652C6.154 7.73652 6.70712 7.98965 7.16181 8.44668L13.5227 14.6482L5.87978 6.81309C5.47197 6.40527 5.22119 5.90605 5.17666 5.40918C5.13212 4.87949 5.31494 4.39434 5.70634 4.00293C6.05791 3.65137 6.48916 3.46621 6.95791 3.46621C7.50634 3.46621 8.05947 3.71699 8.5165 4.17402L16.3118 11.7748L10.6493 5.95527C10.2392 5.54512 9.98837 5.0459 9.94619 4.54902C9.90166 4.02168 10.0845 3.53652 10.4759 3.14512C10.8274 2.79355 11.2587 2.6084 11.7274 2.6084C12.2782 2.6084 12.8313 2.86152 13.286 3.31855L14.9759 4.97559C17.9876 7.92871 20.5048 10.4014 20.7743 10.6779C20.9056 10.7834 21.0767 10.8232 21.1493 10.7881C21.1962 10.7646 21.2477 10.6568 21.2384 10.4295C21.2243 10.0311 21.1681 9.53652 21.1095 9.01387C20.9923 7.96387 20.8704 6.87637 21.0227 6.15918C21.3556 4.91465 22.0095 4.3873 22.497 4.15996C23.1673 3.85059 23.8165 3.9584 23.9407 4.01699C25.1595 4.58887 24.9181 5.54512 24.5852 6.87168L24.5782 6.90449L24.5407 7.17871C24.297 8.37871 25.5485 11.6951 26.8001 14.3975L26.8188 14.435C27.6556 16.2631 29.1626 20.9529 25.1313 24.9842C23.2774 26.8334 21.2712 27.4639 19.4618 27.4639ZM5.29619 13.7623C5.01962 13.7623 4.75712 13.8771 4.5415 14.0928C4.31884 14.3154 4.2415 14.5311 4.28837 14.7889C4.33994 15.0725 4.54853 15.41 4.87431 15.7381C4.87666 15.7404 4.97041 15.8318 5.13212 15.9865C10.6212 21.3139 13.9352 24.4803 14.4649 24.9068L14.4931 24.9326C15.7868 26.2264 20.5938 28.5232 24.6321 24.485C28.3517 20.7654 26.9524 16.4225 26.1767 14.7256L26.1602 14.6904C25.354 12.9514 23.5212 8.73262 23.847 7.0498L23.9009 6.69824C24.2618 5.26387 24.2829 4.96387 23.6712 4.66855C23.4907 4.63574 22.197 4.47871 21.7024 6.32324C21.5782 6.91152 21.6977 7.9873 21.8032 8.93652C21.8642 9.47324 21.9204 9.98184 21.9345 10.4061C21.9579 11.074 21.6415 11.3295 21.4493 11.4232C21.0579 11.6131 20.5915 11.4514 20.3009 11.2076L20.2704 11.1795C20.1274 11.0248 16.7267 7.68965 14.4767 5.48184L12.7845 3.82012C12.2079 3.24121 11.4649 3.14512 10.9657 3.64434C10.722 3.88809 10.6118 4.17402 10.6376 4.49043C10.6657 4.8209 10.8438 5.16543 11.1415 5.46309L16.8157 11.2826C16.9447 11.4152 17.0164 11.5931 17.0155 11.7781C17.0147 11.9631 16.9412 12.1403 16.811 12.2717C16.5509 12.5318 16.0915 12.5365 15.8243 12.2787L8.02197 4.67324C7.44541 4.09668 6.70009 4.00059 6.20322 4.4998C5.95947 4.74355 5.84931 5.02949 5.87509 5.3459C5.90556 5.67637 6.08369 6.02324 6.379 6.31621L14.0267 14.1584C14.2962 14.4303 14.2938 14.8756 14.022 15.1475C13.7618 15.4076 13.3024 15.4123 13.0352 15.1545L6.66728 8.9459C6.09072 8.36465 5.34541 8.2709 4.84853 8.77012C4.2415 9.37715 4.56494 10.1295 5.02431 10.5912L11.2517 17.0225C11.3802 17.1545 11.4516 17.3318 11.4503 17.5161C11.449 17.7004 11.3751 17.8767 11.2446 18.0068C10.9821 18.2693 10.5274 18.2717 10.2602 18.0162L6.36259 14.2709C6.03447 13.9404 5.65712 13.7623 5.29619 13.7623Z" fill="#EDA600"/>
<path d="M20.1593 10.9077C18.8726 13.5351 19.039 17.2124 20.9703 20.1632C21.1882 20.5616 21.5609 20.3671 21.371 19.9569C19.039 14.9671 21.4835 11.3718 21.4835 11.3718L20.1593 10.9077Z" fill="#EDA600"/>
<path d="M15.0977 1.05439C15.8055 0.869233 16.5602 0.885639 17.2938 1.05673C18.0227 1.23251 18.7516 1.60283 19.293 2.20751C19.8227 2.80751 20.1484 3.53642 20.2586 4.30048C20.3617 5.05751 20.2656 5.83798 19.907 6.48486C19.8648 5.7583 19.7383 5.09033 19.525 4.47392C19.4148 4.16689 19.2859 3.87392 19.1289 3.59736C18.9742 3.32314 18.7914 3.05126 18.5969 2.82861C18.2008 2.37158 17.6641 2.01533 17.0617 1.73876C16.457 1.45283 15.7984 1.24189 15.0977 1.05439Z" fill="#B0BEC5"/>
<path d="M15.293 3.27655C15.6844 3.02811 16.1742 2.97655 16.6359 3.05858C17.1023 3.14061 17.5477 3.37264 17.8992 3.69374C18.2484 4.01952 18.4969 4.42968 18.6516 4.85624C18.7266 5.06952 18.7641 5.29452 18.7992 5.51249C18.8109 5.73749 18.8109 5.96249 18.7758 6.18749C18.6141 6.01639 18.4875 5.8453 18.368 5.67889C18.2297 5.52186 18.1219 5.35546 17.9977 5.20311C17.7539 4.90077 17.5172 4.62655 17.2617 4.3828C16.9992 4.14608 16.7227 3.93749 16.4016 3.75702C16.0828 3.57186 15.7242 3.41718 15.293 3.27655Z" fill="#90A4AE"/>
<path d="M1.89315 18.1267C2.22362 18.7736 2.56815 19.3736 2.96893 19.9033C3.36737 20.433 3.8244 20.883 4.35643 21.1759C4.61424 21.3189 4.92128 21.4431 5.22128 21.5369C5.52362 21.633 5.83768 21.6986 6.16112 21.7431C6.808 21.8228 7.48768 21.8087 8.20721 21.6986C7.6494 22.1837 6.90409 22.4416 6.14471 22.4978C5.37596 22.5494 4.59549 22.383 3.89706 21.9892C3.19393 21.5884 2.67831 20.9509 2.35487 20.2736C2.03143 19.5916 1.858 18.858 1.89315 18.1267Z" fill="#B0BEC5"/>
<path d="M4.10711 17.8525C4.33445 18.2463 4.55945 18.5627 4.80554 18.8393C5.04929 19.1158 5.31179 19.3432 5.59773 19.5494C5.88836 19.7486 6.20711 19.9244 6.55398 20.1002C6.72742 20.1893 6.91258 20.2596 7.09539 20.3627C7.28523 20.4447 7.47742 20.5314 7.67898 20.6557C7.4657 20.7354 7.24773 20.7822 7.02508 20.8174C6.80476 20.8268 6.57742 20.8385 6.35242 20.808C5.90242 20.7471 5.45242 20.59 5.05867 20.3158C4.67195 20.0369 4.35086 19.6502 4.17508 19.2119C3.99695 18.776 3.94539 18.2885 4.10711 17.8525Z" fill="#90A4AE"/>
<defs>
<radialGradient id="paint0_radial_2085_5720" cx="0" cy="0" r="1" gradientUnits="userSpaceOnUse" gradientTransform="translate(10.6169 8.9062) rotate(-45) scale(21.33)">
<stop offset="0.353" stop-color="#FFCA28"/>
<stop offset="0.872" stop-color="#FFB300"/>
</radialGradient>
</defs>
</svg>
