<svg width="161" height="50" viewBox="0 0 161 50" fill="none" xmlns="http://www.w3.org/2000/svg">
<g clip-path="url(#clip0_2085_5736)">
<path d="M4.5573 16.4561C4.96511 15.5662 5.51056 14.7938 6.1809 14.1597C6.85634 13.5203 7.65667 13.0036 8.5564 12.6226C9.44084 12.2494 10.3788 12.0616 11.3448 12.0616H20.8621C22.0269 12.0616 22.8094 11.3022 22.8094 10.1696C22.8094 9.0031 22.0269 8.22021 20.8621 8.22021H11.3474C9.81807 8.22021 8.3423 8.52293 6.95829 9.11792C5.59722 9.70769 4.38907 10.5062 3.37209 11.4953C2.35256 12.4869 1.52929 13.6586 0.925223 14.9791C0.310957 16.3204 0 17.7531 0 19.2432V23.6378C0 25.1278 0.310957 26.5605 0.925223 27.8992C1.52929 29.2223 2.35511 30.3966 3.37209 31.3857C4.39162 32.3747 5.59722 33.1759 6.95829 33.763C8.3372 34.358 9.81297 34.6607 11.3474 34.6607H20.8647C22.0295 34.6607 22.812 33.8778 22.812 32.7113C22.812 31.5788 22.0295 30.8194 20.8647 30.8194H11.3474C10.3406 30.8194 9.38222 30.6315 8.50033 30.2583C7.60569 29.8825 6.80791 29.358 6.13502 28.703C5.45958 28.048 4.92178 27.2755 4.53436 26.4039C4.15203 25.548 3.95577 24.6164 3.95577 23.6378V19.2432C3.95323 18.2698 4.15713 17.333 4.5573 16.4561Z" fill="white"/>
<path d="M44.6077 9.04746C43.2338 8.49683 41.7683 8.22021 40.2492 8.22021H37.0759C35.5491 8.22021 34.0785 8.50988 32.7021 9.08399C31.3308 9.6555 30.1278 10.4488 29.121 11.4483C28.127 12.4347 27.3164 13.5934 26.7149 14.8904C26.1032 16.203 25.7718 17.62 25.7285 19.0997V32.7166C25.7285 33.8831 26.5339 34.6659 27.7344 34.6659C28.8993 34.6659 29.6817 33.8831 29.6817 32.7166V19.0944C29.7174 18.1576 29.9366 17.2573 30.3368 16.417C30.7446 15.5584 31.2926 14.8016 31.968 14.1623C32.646 13.5203 33.4387 13.001 34.3231 12.6226C35.1872 12.2521 36.1124 12.0642 37.0759 12.0642H40.2492C41.2152 12.0642 42.1531 12.2521 43.0376 12.6252C43.945 13.0088 44.7657 13.5386 45.459 14.1779C45.8387 14.5485 46.3332 14.7468 46.8863 14.7468C48.0511 14.7468 48.8336 13.964 48.8336 12.7975C48.8336 12.2468 48.617 11.7693 48.2168 11.4352C47.182 10.394 45.9662 9.59287 44.6077 9.04746Z" fill="white"/>
<path d="M74.4224 11.4953C73.4028 10.5062 72.1973 9.70508 70.8362 9.11792C69.4547 8.52293 67.9789 8.22021 66.4496 8.22021H61.9255C60.3962 8.22021 58.9204 8.52293 57.5364 9.11792C56.1753 9.70769 54.9672 10.5062 53.9502 11.4953C52.9307 12.4869 52.1074 13.6586 51.5033 14.9791C50.8891 16.3178 50.5781 17.7531 50.5781 19.2432V23.1811C50.5781 24.6894 50.8636 26.1586 51.4243 27.5417C51.9851 28.9274 52.7778 30.1565 53.7769 31.1899C54.7735 32.2233 55.9689 33.0662 57.3325 33.6952C58.7216 34.3371 60.2662 34.6633 61.9255 34.6633H72.8523C74.0171 34.6633 74.7996 33.8804 74.7996 32.7139C74.7996 31.5814 74.0171 30.822 72.8523 30.822H61.9255C60.4956 30.822 59.1855 30.441 57.9187 29.6607C56.6647 28.8883 55.7777 27.8731 55.2017 26.5579L54.8678 25.8168H75.2023C75.9083 25.8168 76.543 25.561 77.0375 25.0809C77.5345 24.5981 77.7945 23.964 77.7945 23.2411V19.2432C77.7945 17.7557 77.4835 16.323 76.8692 14.9791C76.2652 13.6586 75.4419 12.4869 74.4224 11.4953ZM61.9255 12.0616H66.4496C67.4539 12.0616 68.4122 12.2494 69.2967 12.6226C70.1939 13.001 70.9891 13.5255 71.662 14.1779C72.3349 14.8329 72.8752 15.608 73.2627 16.477C73.6475 17.3382 73.8412 18.2672 73.8412 19.2458V21.9754H54.5313V19.2432C54.5313 18.2724 54.7327 17.346 55.1303 16.4927C55.5381 15.6158 56.0912 14.8356 56.7692 14.1779C57.4421 13.5229 58.2399 13.001 59.1345 12.6226C60.0215 12.2494 60.9595 12.0616 61.9255 12.0616Z" fill="white"/>
<path d="M106.394 0C105.194 0 104.389 0.782881 104.389 1.94937V10.6785C103.524 9.95042 102.536 9.36587 101.434 8.93267C100.043 8.38466 98.59 8.10543 97.1116 8.10543H92.7047C91.178 8.10543 89.7073 8.39509 88.3309 8.96921C86.9597 9.54071 85.7566 10.3366 84.7498 11.3335C83.7533 12.3225 82.9504 13.4864 82.3667 14.7886C81.7754 16.1091 81.4746 17.5313 81.4746 19.0136V23.75C81.4746 25.2323 81.7728 26.6623 82.3641 27.9984C82.9504 29.3293 83.7558 30.4958 84.76 31.4692C85.7617 32.4426 86.9648 33.2281 88.3335 33.797C89.7099 34.3711 91.1805 34.6608 92.7073 34.6608H97.1142C98.6409 34.6608 100.107 34.3685 101.465 33.7944C102.808 33.2255 104.004 32.4478 105.023 31.4796C106.05 30.501 106.869 29.3319 107.457 28.001C108.046 26.6649 108.347 25.2349 108.347 23.7526V1.94937C108.342 0.782881 107.559 0 106.394 0ZM97.1142 30.822H92.7073C91.703 30.822 90.7574 30.6341 89.8959 30.2636C89.0191 29.8878 88.2392 29.3711 87.5816 28.7343C86.924 28.095 86.3938 27.3382 86.0064 26.4849C85.6266 25.6472 85.4329 24.7286 85.4329 23.7552V19.0162C85.4329 18.0402 85.6266 17.1216 86.0064 16.2839C86.3938 15.4306 86.924 14.6738 87.5816 14.0344C88.2392 13.3977 89.0166 12.881 89.8959 12.5052C90.7574 12.1347 91.7056 11.9468 92.7073 11.9468H97.1142C98.0471 11.9468 98.9723 12.1294 99.8618 12.487C100.751 12.8471 101.534 13.3481 102.181 13.9796C102.844 14.6242 103.389 15.3784 103.797 16.2239C104.19 17.0355 104.389 17.9175 104.389 18.8439V23.7526C104.389 24.726 104.195 25.6446 103.815 26.4823C103.425 27.3382 102.895 28.0924 102.24 28.7317C101.582 29.3711 100.805 29.8852 99.9255 30.2636C99.0615 30.6341 98.1159 30.822 97.1142 30.822Z" fill="white"/>
<path d="M115.33 7.09814C114.066 7.09814 113.215 7.92278 113.215 9.1519V32.6696C113.215 33.8622 114.064 34.6634 115.33 34.6634C116.559 34.6634 117.382 33.8622 117.382 32.6696V9.1519C117.382 7.92278 116.556 7.09814 115.33 7.09814Z" fill="white"/>
<path d="M115.328 0C114.665 0 114.084 0.227035 113.64 0.65501C113.199 1.08299 112.965 1.65188 112.965 2.29384C112.965 2.93841 113.199 3.50731 113.638 3.93006C114.079 4.36065 114.662 4.58768 115.328 4.58768C115.99 4.58768 116.574 4.36065 117.015 3.93267C117.456 3.5047 117.69 2.9358 117.69 2.29384C117.69 1.65188 117.458 1.0856 117.012 0.652401C116.569 0.227035 115.988 0 115.328 0Z" fill="white"/>
<path d="M135.945 30.8224H133.712C132.708 30.8224 131.762 30.6345 130.901 30.2639C130.024 29.8881 129.244 29.3714 128.586 28.7347C127.929 28.0953 127.399 27.3386 127.011 26.4852C126.631 25.6475 126.438 24.729 126.438 23.7556V12.0045H135.358C136.559 12.0045 137.364 11.2216 137.364 10.0552C137.364 8.92258 136.559 8.16319 135.358 8.16319H126.438V2.34899C126.438 1.21643 125.632 0.457031 124.432 0.457031C123.267 0.457031 122.484 1.21643 122.484 2.34899V23.753C122.484 25.2352 122.783 26.6653 123.374 28.0014C123.96 29.3323 124.766 30.4988 125.77 31.4722C126.772 32.4455 127.975 33.231 129.343 33.7999C130.72 34.374 132.19 34.6637 133.717 34.6637H135.95C137.115 34.6637 137.897 33.9043 137.897 32.7718C137.892 31.6053 137.11 30.8224 135.945 30.8224Z" fill="white"/>
<path d="M9.35201 44.7289C8.77852 44.5567 8.15151 44.4314 7.48882 44.3558C6.86181 44.2853 6.27558 44.1861 5.74033 44.0583C5.24076 43.9408 4.8253 43.7608 4.5016 43.5259C4.23907 43.3354 4.11673 43.0509 4.11673 42.6308C4.11673 42.2916 4.23142 42.0097 4.46846 41.7696C4.7055 41.5269 4.98333 41.4095 5.31722 41.4095H8.79127C9.12516 41.4095 9.40299 41.5269 9.64003 41.767L9.7063 41.8349C9.77766 41.9184 9.84138 42.0254 9.89491 42.1506C9.94334 42.2655 9.96883 42.3672 9.96883 42.4533V42.6491C9.96883 43.0614 10.2415 43.3406 10.6443 43.3406C11.0597 43.3406 11.3401 43.064 11.3401 42.6491L11.3426 42.6073C11.3554 42.5421 11.3605 42.4847 11.3605 42.4325C11.3605 42.1402 11.2891 41.8427 11.1515 41.5478C11.0215 41.2738 10.8635 41.0337 10.6698 40.8171L10.6009 40.7467C10.1014 40.2535 9.4922 40.0029 8.79382 40.0029H5.33251C4.98333 40.0029 4.64688 40.0734 4.33592 40.2117C4.03007 40.3474 3.75479 40.5379 3.5203 40.7754C3.29091 41.0102 3.10229 41.2895 2.96211 41.6C2.81937 41.921 2.74546 42.2733 2.74546 42.6517C2.74546 43.4398 2.99269 44.0556 3.47952 44.4836C3.91792 44.8672 4.45317 45.1595 5.06999 45.3474C5.65876 45.5275 6.28323 45.6527 6.92808 45.7206C7.53725 45.7832 8.0776 45.8589 8.52619 45.9424C8.72245 45.9815 8.93655 46.0416 9.16085 46.1146C9.3622 46.1825 9.54317 46.2738 9.7012 46.386C9.84903 46.493 9.96882 46.6235 10.0708 46.7879C10.1574 46.9314 10.2008 47.1271 10.2008 47.3646C10.2008 47.7039 10.0861 47.9857 9.84903 48.2284C9.61199 48.4711 9.33672 48.5859 9.00282 48.5859H5.20762C5.06999 48.5859 4.92725 48.5572 4.77942 48.5024C4.63414 48.4476 4.5016 48.3693 4.38945 48.2702C4.2773 48.171 4.183 48.0588 4.11418 47.9335C4.05555 47.8291 4.02752 47.7143 4.02752 47.5838V47.3464C4.02752 46.921 3.75224 46.6339 3.34188 46.6339C3.01563 46.6339 2.7735 46.8323 2.70468 47.1532C2.67154 47.3124 2.65625 47.4638 2.65625 47.6073C2.65625 47.9309 2.73017 48.2467 2.878 48.5494C3.02073 48.8443 3.21954 49.1 3.46423 49.314C3.70127 49.5202 3.96889 49.6846 4.26201 49.8046C4.56277 49.9273 4.88392 49.9899 5.21527 49.9899H8.98498C9.35201 49.9899 9.69865 49.9142 10.0096 49.7681C10.3129 49.6245 10.5831 49.4314 10.8125 49.1966C11.0444 48.9591 11.2305 48.6773 11.363 48.3641C11.4981 48.0457 11.5644 47.7013 11.5644 47.3437C11.5644 46.5739 11.3324 45.9711 10.8762 45.5588C10.4735 45.1934 9.95863 44.9142 9.35201 44.7289Z" fill="white"/>
<path d="M21.912 41.2428C21.5476 40.8696 21.1143 40.5669 20.6274 40.3451C20.133 40.1207 19.6054 40.0059 19.0574 40.0059H17.4261C16.8781 40.0059 16.3505 40.1207 15.856 40.3451C15.3692 40.5669 14.9359 40.8696 14.5714 41.2428C14.2069 41.616 13.9113 42.0596 13.6946 42.5581C13.4754 43.0643 13.3633 43.6045 13.3633 44.1656V45.8357C13.3633 46.3968 13.4754 46.9396 13.6946 47.4432C13.9113 47.9443 14.2069 48.3853 14.5714 48.7585C14.9359 49.1316 15.3692 49.4344 15.856 49.6562C16.3505 49.8806 16.8781 49.9954 17.4261 49.9954H19.0574C19.6054 49.9954 20.1355 49.8806 20.6274 49.6562C21.1143 49.4344 21.5476 49.1316 21.912 48.7585C22.2765 48.3853 22.5722 47.9417 22.7888 47.4432C23.008 46.937 23.1202 46.3968 23.1202 45.8357V44.1656C23.1202 43.6045 23.008 43.0643 22.7888 42.5581C22.5722 42.0596 22.2765 41.6186 21.912 41.2428ZM19.0548 48.5967H17.4236C17.0591 48.5967 16.7124 48.521 16.3913 48.3722C16.0625 48.2209 15.7719 48.0147 15.5247 47.7616C15.28 47.5111 15.0837 47.2136 14.941 46.8796C14.8008 46.5507 14.7295 46.2011 14.7295 45.8383V44.1682C14.7295 43.795 14.8034 43.4349 14.9486 43.0982C15.0965 42.7564 15.2953 42.4615 15.54 42.2162C15.7872 41.9709 16.0778 41.7726 16.404 41.6264C16.7277 41.4829 17.0693 41.4098 17.421 41.4098H19.0523C19.404 41.4098 19.7455 41.4829 20.0692 41.6264C20.3955 41.7726 20.6861 41.9735 20.9307 42.224C21.178 42.4772 21.3793 42.7746 21.5272 43.1113C21.6724 43.4401 21.7464 43.795 21.7464 44.1682V45.8383C21.7464 46.2141 21.675 46.5716 21.5348 46.9004C21.3921 47.2345 21.1958 47.532 20.9511 47.7825C20.7064 48.033 20.4159 48.2339 20.0896 48.3801C19.771 48.5236 19.4218 48.5967 19.0548 48.5967Z" fill="white"/>
<path d="M25.5973 37.0566C25.1946 37.0566 24.9219 37.3333 24.9219 37.7482V49.3087C24.9219 49.721 25.1921 50.0003 25.5973 50.0003C26.0128 50.0003 26.2931 49.7237 26.2931 49.3087V37.7482C26.2931 37.3359 26.0153 37.0566 25.5973 37.0566Z" fill="white"/>
<path d="M36.9333 40.0078C36.5306 40.0078 36.2579 40.2949 36.2579 40.7202V45.8403C36.2579 46.2161 36.1865 46.5736 36.0464 46.9024C35.9036 47.2364 35.7074 47.5339 35.4627 47.7844C35.218 48.035 34.9274 48.2359 34.6012 48.382C34.28 48.5256 33.9308 48.5986 33.5638 48.5986H32.8017C32.4474 48.5986 32.1084 48.5282 31.7924 48.3925C31.4738 48.2542 31.1857 48.061 30.9411 47.8157C30.6964 47.5704 30.4976 47.2782 30.3472 46.9415C30.1994 46.6075 30.1203 46.25 30.1076 45.8846V40.7228C30.1076 40.2975 29.8374 40.0104 29.4322 40.0104C29.0167 40.0104 28.7363 40.2975 28.7363 40.7228V45.8951C28.7516 46.4535 28.8714 46.9885 29.0881 47.4843C29.3047 47.9749 29.5953 48.4133 29.9496 48.7839C30.309 49.1597 30.7423 49.4598 31.2316 49.6764C31.7236 49.893 32.2512 50.0026 32.7992 50.0026H33.5613C34.1067 50.0026 34.6343 49.893 35.1262 49.6764C35.6182 49.4598 36.0489 49.1623 36.4083 48.7839C36.7626 48.4107 37.0531 47.9749 37.2698 47.4843C37.489 46.9885 37.6062 46.4535 37.6241 45.8846V40.7228C37.6292 40.2923 37.3488 40.0078 36.9333 40.0078Z" fill="white"/>
<path d="M43.9251 48.5963H43.1197C42.7527 48.5963 42.4086 48.5232 42.0951 48.3823C41.7765 48.2388 41.491 48.0405 41.2514 47.7952C41.0118 47.5499 40.8181 47.2602 40.6779 46.9314C40.5377 46.6104 40.4689 46.2581 40.4689 45.8823V41.3886H43.7136C44.129 41.3886 44.4094 41.1015 44.4094 40.6762C44.4094 40.2638 44.129 39.9846 43.7136 39.9846H40.4689V37.7482C40.4689 37.3359 40.1886 37.0566 39.7731 37.0566C39.3704 37.0566 39.0977 37.3333 39.0977 37.7482V45.8823C39.0977 46.4408 39.2047 46.981 39.4163 47.4872C39.6253 47.9883 39.9158 48.4293 40.2727 48.7972C40.632 49.1652 41.0628 49.4601 41.5522 49.6767C42.0441 49.8933 42.5717 50.0029 43.1197 50.0029H43.9251C44.3278 50.0029 44.6006 49.7263 44.6006 49.3113C44.598 48.8834 44.3278 48.5963 43.9251 48.5963Z" fill="white"/>
<path d="M47.356 40.1152C46.9405 40.1152 46.6602 40.4023 46.6602 40.8277V49.3089C46.6602 49.7212 46.9405 50.0004 47.356 50.0004C47.7587 50.0004 48.0314 49.7238 48.0314 49.3089V40.8277C48.0314 40.4023 47.7587 40.1152 47.356 40.1152Z" fill="white"/>
<path d="M46.796 37.7848C46.6507 37.9336 46.5742 38.1319 46.5742 38.3563C46.5742 38.5807 46.6507 38.7791 46.796 38.9278C46.9413 39.0766 47.135 39.1575 47.3542 39.1575C47.5734 39.1575 47.7671 39.0792 47.9124 38.9304C48.0576 38.7817 48.1341 38.5834 48.1341 38.3589C48.1341 38.1345 48.0576 37.9388 47.9098 37.7874C47.6192 37.4847 47.0865 37.4847 46.796 37.7848Z" fill="white"/>
<path d="M58.9824 41.2428C58.6179 40.8696 58.1846 40.5669 57.6977 40.3451C57.2033 40.1207 56.6757 40.0059 56.1277 40.0059H54.4964C53.9484 40.0059 53.4208 40.1207 52.9263 40.3451C52.4395 40.5669 52.0062 40.8696 51.6417 41.2428C51.2773 41.616 50.9816 42.0596 50.7649 42.5581C50.5457 43.0643 50.4336 43.6045 50.4336 44.1656V45.8357C50.4336 46.3968 50.5457 46.9396 50.7649 47.4432C50.9816 47.9443 51.2773 48.3853 51.6417 48.7585C52.0062 49.1316 52.4395 49.4344 52.9263 49.6562C53.4208 49.8806 53.9484 49.9954 54.4964 49.9954H56.1277C56.6757 49.9954 57.2058 49.8806 57.6977 49.6562C58.1846 49.4344 58.6179 49.1316 58.9824 48.7585C59.3468 48.3853 59.6425 47.9417 59.8591 47.4432C60.0783 46.937 60.1905 46.3968 60.1905 45.8357V44.1656C60.1905 43.6045 60.0783 43.0643 59.8591 42.5581C59.6425 42.0596 59.3468 41.6186 58.9824 41.2428ZM56.1251 48.5967H54.4939C54.1294 48.5967 53.7827 48.521 53.4616 48.3722C53.1328 48.2209 52.8422 48.0147 52.595 47.7616C52.3503 47.5111 52.1541 47.2136 52.0113 46.8796C51.8711 46.5507 51.7998 46.2011 51.7998 45.8383V44.1682C51.7998 43.795 51.8737 43.4349 52.019 43.0982C52.1668 42.7564 52.3656 42.4615 52.6103 42.2162C52.8575 41.9709 53.1481 41.7726 53.4743 41.6264C53.798 41.4829 54.1396 41.4098 54.4913 41.4098H56.1226C56.4743 41.4098 56.8158 41.4829 57.1395 41.6264C57.4658 41.7726 57.7564 41.9735 58.0011 42.224C58.2483 42.4772 58.4496 42.7746 58.5975 43.1113C58.7428 43.4401 58.8167 43.795 58.8167 44.1682V45.8383C58.8167 46.2141 58.7453 46.5716 58.6051 46.9004C58.4624 47.2345 58.2661 47.532 58.0214 47.7825C57.7768 48.033 57.4862 48.2339 57.1599 48.3801C56.8413 48.5236 56.4921 48.5967 56.1251 48.5967Z" fill="white"/>
<path d="M71.4261 42.5372C71.2095 42.0361 70.9138 41.5977 70.5468 41.2298C70.1823 40.8644 69.7516 40.5669 69.2647 40.3451C68.7703 40.1207 68.2427 40.0059 67.6947 40.0059H66.0634C65.5154 40.0059 64.9904 40.1155 64.4959 40.3321C64.004 40.5487 63.5732 40.8462 63.2138 41.2245C62.857 41.5977 62.569 42.0335 62.3523 42.5241C62.1331 43.0199 62.0133 43.5549 61.998 44.1238V49.2856C61.998 49.711 62.2784 49.998 62.6939 49.998C63.0966 49.998 63.3693 49.711 63.3693 49.2856V44.116C63.3821 43.7532 63.4611 43.4062 63.6089 43.08C63.7567 42.7486 63.9555 42.4563 64.1951 42.211C64.4347 41.9683 64.7202 41.77 65.0464 41.6238C65.3701 41.4803 65.7117 41.4072 66.0634 41.4072H67.6947C68.0464 41.4072 68.3879 41.4803 68.7116 41.6238C69.0379 41.77 69.3285 41.9709 69.5731 42.2214C69.8204 42.4745 70.0217 42.772 70.1696 43.1087C70.3149 43.4375 70.3888 43.7924 70.3888 44.1656V49.2856C70.3888 49.711 70.6589 49.998 71.0642 49.998C71.4797 49.998 71.76 49.711 71.76 49.2856V44.1238C71.7575 43.5784 71.6453 43.0434 71.4261 42.5372Z" fill="white"/>
<path d="M153.78 43.5176C141.801 47.6434 118.448 51.0776 74.0684 45.5922C74.0684 45.5922 175.379 44.1021 139.112 26.1768C139.856 26.2785 167.228 30.0964 158.608 40.2373C157.272 41.8031 155.59 42.8939 153.78 43.5176Z" fill="url(#paint0_linear_2085_5736)"/>
</g>
<defs>
<linearGradient id="paint0_linear_2085_5736" x1="59.1566" y1="29.6305" x2="167.8" y2="99.3495" gradientUnits="userSpaceOnUse">
<stop stop-color="#FFB018"/>
<stop offset="0.638266" stop-color="#FF2900"/>
</linearGradient>
<clipPath id="clip0_2085_5736">
<rect width="160.283" height="50" fill="white"/>
</clipPath>
</defs>
</svg>
