<svg width="19" height="20" viewBox="0 0 19 20" fill="none" xmlns="http://www.w3.org/2000/svg">
<path d="M12.0312 7V3.25C12.0312 2.65326 11.7942 2.08097 11.3722 1.65901C10.9503 1.23705 10.378 1 9.78125 1H3.78125C3.18451 1 2.61222 1.23705 2.19026 1.65901C1.7683 2.08097 1.53125 2.65326 1.53125 3.25V16.75C1.53125 17.3467 1.7683 17.919 2.19026 18.341C2.61222 18.7629 3.18451 19 3.78125 19H9.78125C10.378 19 10.9503 18.7629 11.3722 18.341C11.7942 17.919 12.0312 17.3467 12.0312 16.75V13M8.28125 7L5.28125 10M5.28125 10L8.28125 13M5.28125 10H18.0312" stroke="white" stroke-width="1.5" stroke-linecap="round" stroke-linejoin="round"/>
</svg>
