<svg width="23" height="21" viewBox="0 0 23 21" fill="none" xmlns="http://www.w3.org/2000/svg">
<path d="M22.4 16.5V18.5C22.4 19.6032 21.5024 20.5 20.4 20.5H3.2C1.4352 20.5 0 19.0648 0 17.3C0 17.3 0 3.712 0 3.7C0 1.9352 1.4352 0.5 3.2 0.5H18C18.6632 0.5 19.2 1.0376 19.2 1.7C19.2 2.3624 18.6632 2.9 18 2.9H3.2C2.7592 2.9 2.4 3.2584 2.4 3.7C2.4 4.1416 2.7592 4.5 3.2 4.5H20.4C21.5024 4.5 22.4 5.3968 22.4 6.5V8.5H18.4C16.1944 8.5 14.4 10.2944 14.4 12.5C14.4 14.7056 16.1944 16.5 18.4 16.5H22.4Z" fill="url(#paint0_linear_2148_1141)"/>
<defs>
<linearGradient id="paint0_linear_2148_1141" x1="-3.87421" y1="3.60345" x2="34.65" y2="10.7515" gradientUnits="userSpaceOnUse">
<stop stop-color="#FFB018"/>
<stop offset="0.638266" stop-color="#FF2900"/>
</linearGradient>
</defs>
</svg>
